# xmcd CD database file
#
# Track frame offsets:
#	150
#	14530
#	33570
#	54280
#	67365
#	80442
#	95020
#	105017
#	120605
#	137082
#	153760
#	181867
#	195057
#	205682
#	228442
#
# Disc length: 3236 seconds
#
# Revision: 0
# Processed by: cddbd v1.5.1PL0 Copyright (c) Steve Scherf et al.
# Submitted via: CDex 1.60beta1
#
DISCID=b80ca20f
DTITLE=Tony Bennett - The Heart of Tony Bennett
DYEAR=1900
DGENRE=Jazz
TTITLE0=Wrap Your Troubles in Dreams (And Dream Your Troubles Away)
TTITLE1=Fly Me to The Moon (In Other Words)
TTITLE2=Moonglow
TTITLE3=Until I Met You
TTITLE4=I Left My Heart in San Francisco
TTITLE5=Lullaby of Broadway
TTITLE6=I Wanna be Around
TTITLE7=One for My Baby
TTITLE8=The Shadow of Your Smile
TTITLE9=Sweet Loraine
TTITLE10=Penthouse Serenade (When We're Alone)
TTITLE11=Steppin' Out With My Baby
TTITLE12=Lazy Afternoon
TTITLE13=Ol' Man River
TTITLE14=This Time the Dream's On Me
EXTD=
EXTT0=
EXTT1=
EXTT2=
EXTT3=
EXTT4=
EXTT5=
EXTT6=
EXTT7=
EXTT8=
EXTT9=
EXTT10=
EXTT11=
EXTT12=
EXTT13=
EXTT14=
PLAYORDER=
